{"title":"Temptation 2013 CAMRip XviD AC3 - TODE","uid":8372584,"size":734607661,"categoryP":"video","categoryS":"movies","magnet":"?xt=urn:btih:ad35d7959f8d418a7d538dc07aa8e01698bee886&amp;dn=Temptation+2013+CAMRip+XviD+AC3+-+TODE&amp;tr=udp%3A%2F%2Ftracker.openbittorrent.com%3A80&amp;tr=udp%3A%2F%2Fopen.demonii.com%3A1337&amp;tr=udp%3A%2F%2Ftracker.coppersurfer.tk%3A6969&amp;tr=udp%3A%2F%2Fexodus.desync.com%3A6969","seeders":15,"leechers":0,"uploader":"xxxlavalxxx","files":-1,"time":1365958654,"description":"    &lt;a href=&quot;\nhttp://www.imdb.com/title/tt2070862/&quot; rel=&quot;nofollow&quot; target=&quot;_NEW&quot;&gt;\nhttp://www.imdb.com/title/tt2070862/&lt;/a&gt;\n\n\nPlot: An ambitious married woman's temptation by a handsome billionaire leads to betrayal, recklessness, and forever alters the course of her life. \n\n\n\nDirector:\n Tyler Perry \n\nWriter:\n Tyler Perry \n\nStars:\n Jurnee Smollett-Bell, Kim Kardashian, Vanessa Williams\n\nGenres:\n  Drama \n\nCountry:\n USA \n\nLanguage:\n English \n\n\nThanks: JUSTiCE\n\n\nFormat                                   : AVI\nFormat/Info                              : Audio Video Interleave\nFile size                                : 701 MiB\nDuration                                 : 1h 46mn\nOverall bit rate                         : 921 Kbps\nWriting application                      : Lavf54.59.103\n\nVideo\nID                                       : 0\nFormat                                   : MPEG-4 Visual\nFormat profile                           : Simple@L3\nFormat settings, BVOP                    : No\nFormat settings, QPel                    : No\nFormat settings, GMC                     : No warppoints\nFormat settings, Matrix                  : Default (H.263)\nCodec ID                                 : XVID\nCodec ID/Hint                            : XviD\nDuration                                 : 1h 46mn\nBit rate                                 : 845 Kbps\nWidth                                    : 640 pixels\nHeight                                   : 320 pixels\nDisplay aspect ratio                     : 1.950\nFrame rate                               : 29.970 fps\nColor space                              : YUV\nChroma subsampling                       : 4:2:0\nBit depth                                : 8 bits\nScan type                                : Progressive\nCompression mode                         : Lossy\nBits/(Pixel*Frame)                       : 0.138\nStream size                              : 643 MiB (92%)\nWriting library                          : XviD 64\n\nAudio\nID                                       : 1\nFormat                                   : AC-3\nFormat/Info                              : Audio Coding 3\nMode extension                           : CM (complete main)\nFormat settings, Endianness              : Big\nCodec ID                                 : 2000\nDuration                                 : 1h 46mn\nBit rate mode                            : Constant\nBit rate                                 : 64.0 Kbps\nChannel(s)                               : 2 channels\nChannel positions                        : Front: L R\nSampling rate                            : 48.0 KHz\nBit depth                                : 16 bits\nCompression mode                         : Lossy\nStream size                              : 48.7 MiB (7%)\nAlignment                                : Aligned on interleaves\nInterleave, duration                     : 32 ms (0.96 video frame)\n\n\n\n\n       &lt;a href=&quot; http://www.shotpix.com/images/32047532676429817136.png&quot; rel=&quot;nofollow&quot; target=&quot;_NEW&quot;&gt; http://www.shotpix.com/images/32047532676429817136.png&lt;/a&gt;\n       &lt;a href=&quot; http://www.shotpix.com/images/43138518701223363395.png&quot; rel=&quot;nofollow&quot; target=&quot;_NEW&quot;&gt; http://www.shotpix.com/images/43138518701223363395.png&lt;/a&gt;\n       &lt;a href=&quot; http://www.shotpix.com/images/50409537324311731083.png&quot; rel=&quot;nofollow&quot; target=&quot;_NEW&quot;&gt; http://www.shotpix.com/images/50409537324311731083.png&lt;/a&gt;\n       &lt;a href=&quot; http://www.shotpix.com/images/90458800164248359882.png&quot; rel=&quot;nofollow&quot; target=&quot;_NEW&quot;&gt; http://www.shotpix.com/images/90458800164248359882.png&lt;/a&gt;\n       &lt;a href=&quot; http://www.shotpix.com/images/47636710459860588120.png&quot; rel=&quot;nofollow&quot; target=&quot;_NEW&quot;&gt; http://www.shotpix.com/images/47636710459860588120.png&lt;/a&gt;\n       &lt;a href=&quot; http://www.shotpix.com/images/09035732211861801362.png&quot; rel=&quot;nofollow&quot; target=&quot;_NEW&quot;&gt; http://www.shotpix.com/images/09035732211861801362.png&lt;/a&gt;","torrent":{"xt":"urn:btih:ad35d7959f8d418a7d538dc07aa8e01698bee886","amp;dn":"Temptation+2013+CAMRip+XviD+AC3+-+TODE","amp;tr":["udp%3A%2F%2Ftracker.openbittorrent.com%3A80","udp%3A%2F%2Fopen.demonii.com%3A1337","udp%3A%2F%2Ftracker.coppersurfer.tk%3A6969","udp%3A%2F%2Fexodus.desync.com%3A6969"],"infoHash":"ad35d7959f8d418a7d538dc07aa8e01698bee886","infoHashBuffer":{"type":"Buffer","data":[173,53,215,149,159,141,65,138,125,83,141,192,122,168,224,22,152,190,232,134]},"announce":[],"urlList":[]}}